<svg width="52" height="52" viewBox="0 0 52 52" fill="none" xmlns="http://www.w3.org/2000/svg">
<path fill-rule="evenodd" clip-rule="evenodd" d="M33.3424 25.974L40.7069 18.6159C42.7388 16.5879 42.7388 13.286 40.7069 11.258C38.6724 9.21704 35.3756 9.21704 33.3424 11.258L25.9792 18.6159L18.616 11.258C16.5841 9.21704 13.2873 9.21704 11.2528 11.258C9.22091 13.286 9.22091 16.5879 11.2528 18.6159L18.616 25.974L11.2528 33.345C9.22091 35.373 9.22091 38.6751 11.2528 40.7031C13.2873 42.7441 16.5841 42.7441 18.616 40.7031L25.9792 33.345L33.3424 40.7031C35.3756 42.7441 38.6724 42.7441 40.7069 40.7031C42.7388 38.6751 42.7388 35.373 40.7069 33.345L33.3424 25.974Z" fill="#FFFBE0"/>
</svg>
