<svg width="74" height="74" viewBox="0 0 74 74" fill="none" xmlns="http://www.w3.org/2000/svg">
<g clip-path="url(#clip0_4_104)">
<path fill-rule="evenodd" clip-rule="evenodd" d="M41.943 31.5593L41.9475 21.1489C41.9503 18.2781 39.6155 15.9433 36.7447 15.9461C33.8629 15.9415 31.5317 18.2727 31.5373 21.1536L31.5335 31.5629L21.1241 31.5667C18.2441 31.5603 15.913 33.8915 15.9175 36.7733C15.9148 39.644 18.2496 41.9788 21.1204 41.9761L31.5299 41.9724L31.5354 52.3911C31.5326 55.2619 33.8675 57.5968 36.7383 57.594C39.6201 57.5986 41.9513 55.2674 41.9449 52.3875L41.9485 41.978L52.358 41.9743C55.2389 41.9799 57.5701 39.6487 57.5655 36.7669C57.5683 33.8961 55.2334 31.5612 52.3626 31.5639L41.943 31.5593Z" fill="#474744"/>
</g>
<defs>
<clipPath id="clip0_4_104">
<rect width="52" height="52" fill="white" transform="translate(0 36.7696) rotate(-45)"/>
</clipPath>
</defs>
</svg>
